<?xml version="1.0" encoding="iso-8859-1"?>
<!-- Generator: Adobe Illustrator 19.0.0, SVG Export Plug-In . SVG Version: 6.00 Build 0)  -->
<svg version="1.1" id="Layer_1" xmlns="http://www.w3.org/2000/svg" xmlns:xlink="http://www.w3.org/1999/xlink" x="0px" y="0px"
	 viewBox="0 0 512 512" style="enable-background:new 0 0 512 512;" xml:space="preserve">
<path style="fill:#E1EAF6;" d="M203.034,414.897v20.651c0,38.255,27.631,62.696,42.979,73.321c6.033,4.175,13.941,4.175,19.974,0
	c15.348-10.624,42.979-35.064,42.979-73.321v-20.651H203.034z"/>
<circle style="fill:#FFFFFF;" cx="256" cy="423.724" r="30.897"/>
<rect x="238.345" y="211.862" style="fill:#ABB9D3;" width="35.31" height="88.276"/>
<path style="fill:#6F7588;" d="M256,0L256,0c-4.875,0-8.828,3.953-8.828,8.828v194.207c0,4.875,3.953,8.828,8.828,8.828l0,0
	c4.875,0,8.828-3.953,8.828-8.828V8.828C264.828,3.953,260.875,0,256,0z"/>
<g>
	<path style="fill:#C4CFE3;" d="M273.655,203.034h-35.31c-4.875,0-8.828,3.953-8.828,8.828v8.828c0,4.875,3.953,8.828,8.828,8.828
		h35.31c4.875,0,8.828-3.953,8.828-8.828v-8.828C282.483,206.987,278.53,203.034,273.655,203.034z"/>
	<path style="fill:#C4CFE3;" d="M275.508,282.483h-39.017c-8.996,0-16.554,6.764-17.547,15.705l-7.082,63.743h88.276l-7.083-63.743
		C292.062,289.247,284.504,282.483,275.508,282.483z"/>
</g>
<path style="fill:#ABB9D3;" d="M308.966,379.586H203.034v-17.655c0-4.875,3.953-8.828,8.828-8.828h88.276
	c4.875,0,8.828,3.953,8.828,8.828V379.586z"/>
<path style="fill:#C4CFE3;" d="M361.931,432.552H150.069c-4.875,0-8.828-3.953-8.828-8.828v-4.693c0-2.62,1.164-5.105,3.176-6.782
	l42.42-35.352c4.759-3.967,10.759-6.138,16.954-6.138h104.414c6.196,0,12.194,2.172,16.954,6.138l42.423,35.352
	c2.013,1.677,3.176,4.162,3.176,6.782v4.693C370.759,428.599,366.806,432.552,361.931,432.552z"/>
<g>
</g>
<g>
</g>
<g>
</g>
<g>
</g>
<g>
</g>
<g>
</g>
<g>
</g>
<g>
</g>
<g>
</g>
<g>
</g>
<g>
</g>
<g>
</g>
<g>
</g>
<g>
</g>
<g>
</g>
</svg>
