<svg xmlns="http://www.w3.org/2000/svg" height="1093pt" version="1.1" viewBox="0 -195 1093.75 1093" width="1093pt" style="enable-background:new 0 0 493.746 493.746;" xml:space="preserve" xmlns:xlink="http://www.w3.org/1999/xlink">
 <script type="text/ecmascript" xlink:href="..\js\jquery.min.js" />
 <script type="text/ecmascript" xlink:href="..\js\TweenMax.min.js" />
 <script type="text/ecmascript" xlink:href="..\js\script.js" />
<g id="surface1">
<path d="M 435.035156 224.710938 L 405.585938 273.8125 L 688.164062 273.8125 L 658.714844 224.710938 C 655.152344 218.84375 648.796875 215.25 641.9375 215.21875 L 451.8125 215.21875 C 444.953125 215.25 438.597656 218.84375 435.035156 224.710938 Z M 435.035156 224.710938 " style=" stroke:none;fill-rule:nonzero;fill:rgb(0%,0%,0%);fill-opacity:1;" />
<path d="M 25.527344 156.625 L 0 156.625 L 0 273.8125 L 69.472656 273.8125 Z M 25.527344 156.625 " style=" stroke:none;fill-rule:nonzero;fill:rgb(0%,0%,0%);fill-opacity:1;" />
<path id="plate2" d="M 617.1875 39.4375 L 1074.21875 39.4375 C 1085.007812 39.4375 1093.75 30.695312 1093.75 19.90625 C 1093.75 9.117188 1085.007812 0.375 1074.21875 0.375 L 617.1875 0.375 C 613.339844 0.375 609.589844 1.507812 606.386719 3.640625 L 582.03125 19.90625 L 606.398438 36.15625 C 609.59375 38.289062 613.339844 39.4375 617.1875 39.4375 Z M 617.1875 39.4375 " fill="#000" style=" stroke:none;fill-rule:nonzero;fill-opacity:1;"/>
<path d="M 882.574219 466.835938 L 994.023438 468.5 L 932.011719 391 L 835.785156 391 Z M 882.574219 466.835938 " style=" stroke:none;fill-rule:nonzero;fill:rgb(0%,0%,0%);fill-opacity:1;" />
<path id="plate1" d="M 19.53125 39.4375 L 476.5625 39.4375 C 480.410156 39.4375 484.160156 38.304688 487.363281 36.171875 L 511.71875 19.90625 L 487.351562 3.65625 C 484.15625 1.523438 480.410156 0.375 476.5625 0.375 L 19.53125 0.375 C 8.742188 0.375 0 9.117188 0 19.90625 C 0 30.695312 8.742188 39.4375 19.53125 39.4375 Z M 19.53125 39.4375 " fill="#000" style=" stroke:none;fill-rule:nonzero;fill-opacity:1;" />
<path d="M 1058.714844 514.285156 L 1039.054688 508.425781 L 871.285156 505.785156 C 864.625 505.679688 858.457031 502.191406 854.957031 496.507812 L 784.15625 381.761719 C 780.421875 375.734375 780.25 368.15625 783.695312 361.957031 C 787.15625 355.757812 793.691406 351.933594 800.78125 351.9375 L 899.445312 351.9375 C 873.9375 326.820312 839.546875 312.78125 803.75 312.875 L 0 312.875 L 0 335.882812 L 381.273438 410.902344 C 385.425781 411.710938 389.183594 413.855469 392 417 L 532.871094 573.523438 C 551.414062 594.078125 577.78125 605.8125 605.46875 605.84375 L 1047.480469 605.84375 C 1073.007812 605.8125 1093.71875 585.101562 1093.75 559.574219 C 1093.382812 538.386719 1079.132812 519.953125 1058.714844 514.285156 Z M 798.476562 497.878906 C 795.074219 504.226562 788.453125 508.1875 781.25 508.1875 L 664.0625 508.1875 C 657.53125 508.1875 651.4375 504.921875 647.8125 499.496094 L 569.6875 382.308594 C 565.683594 376.3125 565.320312 368.609375 568.710938 362.25 C 572.113281 355.902344 578.734375 351.9375 585.9375 351.9375 L 703.125 351.9375 C 709.65625 351.9375 715.75 355.203125 719.375 360.628906 L 797.5 477.816406 C 801.507812 483.8125 801.878906 491.515625 798.476562 497.878906 Z M 798.476562 497.878906 " style=" stroke:none;fill-rule:nonzero;fill:rgb(0%,0%,0%);fill-opacity:1;" />
<path d="M 622.421875 391 L 674.511719 469.125 L 744.765625 469.125 L 692.675781 391 Z M 622.421875 391 " style=" stroke:none;fill-rule:nonzero;fill:rgb(0%,0%,0%);fill-opacity:1;" />
<path d="M 644.53125 644.90625 L 937.5 644.90625 L 937.5 703.5 L 644.53125 703.5 Z M 644.53125 644.90625 " style=" stroke:none;fill-rule:nonzero;fill:rgb(0%,0%,0%);fill-opacity:1;" />
<path d="M 0 469.125 L 7.460938 469.125 L 49.316406 385.390625 L 0 375.679688 Z M 0 469.125 " style=" stroke:none;fill-rule:nonzero;fill:rgb(0%,0%,0%);fill-opacity:1;" />
<path d="M 527.34375 19.90625 L 566.40625 19.90625 L 566.40625 176.15625 L 527.34375 176.15625 Z M 527.34375 19.90625 " style=" stroke:none;fill-rule:nonzero;fill:rgb(0%,0%,0%);fill-opacity:1;" />
</g>
</svg>
