<?xml version="1.0" encoding="iso-8859-1"?>
<!-- Generator: Adobe Illustrator 16.0.0, SVG Export Plug-In . SVG Version: 6.00 Build 0)  -->
<!DOCTYPE svg PUBLIC "-//W3C//DTD SVG 1.1//EN" "http://www.w3.org/Graphics/SVG/1.1/DTD/svg11.dtd">
<svg version="1.1" id="Capa_1" xmlns="http://www.w3.org/2000/svg" xmlns:xlink="http://www.w3.org/1999/xlink" x="0px" y="0px"
	 width="95.666px" height="95.665px" viewBox="0 0 95.666 95.665" style="enable-background:new 0 0 95.666 95.665;"
	 xml:space="preserve">
<g>
	<path d="M59.564,78.158c-12.783,0-24.225-6.518-31.924-16.788c5.775,3.958,12.542,6.237,19.778,6.237
		c21.176,0,38.342-17.014,38.342-43.547c0,14.304-11.596,25.899-25.898,25.899c-14.303,0-25.899-11.595-25.899-25.898
		c0-10.869,6.698-20.168,16.188-24.01C49.478,0.023,48.804,0,48.124,0c-9.038,0-17.487,2.511-24.695,6.869
		c0.002-0.003,0.003-0.006,0.005-0.009C9.564,15.235,0.291,30.45,0.291,47.832c0,26.418,21.416,47.833,47.833,47.833
		c23.879,0,43.669-17.5,47.251-40.373C87.994,69.007,74.718,78.158,59.564,78.158z"/>
</g>
<g>
</g>
<g>
</g>
<g>
</g>
<g>
</g>
<g>
</g>
<g>
</g>
<g>
</g>
<g>
</g>
<g>
</g>
<g>
</g>
<g>
</g>
<g>
</g>
<g>
</g>
<g>
</g>
<g>
</g>
</svg>
